<svg t="1625323906168" class="icon" viewBox="0 0 1024 1024" version="1.1" xmlns="http://www.w3.org/2000/svg" p-id="4748" width="16" height="16"><path d="M834.953846 47.655385H193.772308A148.086154 148.086154 0 0 0 46.08 196.923077v639.606154A147.692308 147.692308 0 0 0 193.772308 984.615385H834.953846a147.692308 147.692308 0 0 0 149.661539-148.086154V196.923077a148.086154 148.086154 0 0 0-149.661539-149.267692zM712.861538 669.538462a244.972308 244.972308 0 0 1-122.092307 92.16 9.452308 9.452308 0 0 1-5.907693 0 3.938462 3.938462 0 0 1-1.96923-2.756924 13.390769 13.390769 0 0 1 0-4.332307v-66.56a69.710769 69.710769 0 0 0-21.267693-51.2 139.815385 139.815385 0 0 0 84.676923-42.141539 118.153846 118.153846 0 0 0 27.963077-78.76923 109.095385 109.095385 0 0 0-27.56923-74.436924 96.492308 96.492308 0 0 0-3.544616-66.166153 76.406154 76.406154 0 0 0-29.932307 4.332307 148.873846 148.873846 0 0 0-24.024616 10.633846l-14.178461 9.452308a248.123077 248.123077 0 0 0-63.803077-7.876923 240.64 240.64 0 0 0-63.409231 7.876923L433.230769 393.846154a157.538462 157.538462 0 0 0-24.812307-11.421539 75.618462 75.618462 0 0 0-31.901539-5.513846 95.310769 95.310769 0 0 0-2.756923 67.347693 110.670769 110.670769 0 0 0-27.175385 74.436923 114.215385 114.215385 0 0 0 27.569231 78.76923 140.209231 140.209231 0 0 0 84.676923 42.535385 68.529231 68.529231 0 0 0-19.692307 34.264615c-27.963077 7.089231-47.655385 1.969231-58.683077-14.572307-20.48-30.326154-39.384615-39.384615-55.532308-32.689231-2.363077 2.363077-1.969231 4.726154 0 7.089231a133.12 133.12 0 0 0 13.390769 9.846154 49.230769 49.230769 0 0 1 13.390769 13.784615s0 3.150769 2.756923 7.089231l4.332308 11.815384a56.713846 56.713846 0 0 0 8.270769 12.603077 69.316923 69.316923 0 0 0 14.572308 11.421539 63.015385 63.015385 0 0 0 22.055385 7.08923 129.181538 129.181538 0 0 0 32.68923 0v49.624616a7.089231 7.089231 0 0 1 0 2.363077 3.150769 3.150769 0 0 1 0 2.363077h-10.24A246.153846 246.153846 0 0 1 304.049231 669.538462a243.790769 243.790769 0 0 1-46.867693-146.904616A244.972308 244.972308 0 0 1 275.692308 424.566154a254.030769 254.030769 0 0 1 53.563077-78.769231 251.667692 251.667692 0 0 1 78.76923-53.563077 248.516923 248.516923 0 0 1 196.923077 0 254.030769 254.030769 0 0 1 78.769231 53.563077 256.393846 256.393846 0 0 1 73.649231 178.412308A244.578462 244.578462 0 0 1 712.861538 669.538462z" fill="#cdcdcd" p-id="4749"></path></svg>