<svg t="1625239870475" class="icon" viewBox="0 0 1024 1024" version="1.1" xmlns="http://www.w3.org/2000/svg" p-id="14996" width="16" height="16"><path d="M214.356687 512.026191a297.734718 297.734718 0 0 1 15.714359-95.071871L53.860703 285.163231a506.264259 506.264259 0 0 0 0 453.516395l176.105581-132.000614a297.106144 297.106144 0 0 1-15.714359-94.652821" fill="#dbdbdb" p-id="14997"></path><path d="M523.824793 209.472403a306.849046 306.849046 0 0 1 192.71042 67.46698l152.376899-148.91974a529.678654 529.678654 0 0 0-815.10379 157.143588L230.071046 416.95432a308.001432 308.001432 0 0 1 293.753747-207.534299" fill="#dbdbdb" p-id="14998"></path><path d="M523.824793 814.527597a308.001432 308.001432 0 0 1-293.806128-207.481917l-176.210343 131.791089a523.183385 523.183385 0 0 0 470.016471 285.11085 505.164254 505.164254 0 0 0 341.158729-127.548212l-167.305539-126.448207a329.111054 329.111054 0 0 1-173.905571 44.785922" fill="#dbdbdb" p-id="14999"></path><path d="M1023.698546 512.183334a415.906696 415.906696 0 0 0-11.942912-93.081385H523.772412v197.843777h280.867973a230.477262 230.477262 0 0 1-106.85764 153.005474l167.253159 126.657731a504.064249 504.064249 0 0 0 158.662642-384.425597" fill="#dbdbdb" p-id="15000"></path></svg>